<svg xmlns="http://www.w3.org/2000/svg" xmlns:xlink="http://www.w3.org/1999/xlink" width="500" zoomAndPan="magnify" viewBox="0 0 375 374.999991" height="500" preserveAspectRatio="xMidYMid meet" version="1.0"><defs><g/><clipPath id="d5b0de4596"><path d="M 41 148.074219 L 179 148.074219 L 179 253.824219 L 41 253.824219 Z M 41 148.074219 " clip-rule="nonzero"/></clipPath></defs><rect x="-37.5" width="450" fill="#ffffff" y="-37.499999" height="449.999989" fill-opacity="1"/><rect x="-37.5" width="450" fill="#ffffff" y="-37.499999" height="449.999989" fill-opacity="1"/><g clip-path="url(#d5b0de4596)"><path fill="#cb0b0b" d="M 116.945312 201.28125 L 138.035156 180.1875 C 140.316406 177.941406 144.164062 177.941406 146.414062 180.1875 C 148.660156 182.4375 148.660156 186.316406 146.414062 188.5625 L 125.320312 209.65625 Z M 109.769531 109.828125 C 106.167969 109.828125 102.871094 111.304688 100.5 113.675781 C 98.128906 116.046875 96.652344 119.34375 96.652344 122.945312 C 96.652344 126.546875 98.128906 129.84375 100.5 132.214844 C 102.871094 134.585938 106.167969 136.0625 109.769531 136.0625 C 113.371094 136.0625 116.667969 134.585938 119.039062 132.214844 C 121.410156 129.84375 122.886719 126.546875 122.886719 122.945312 C 122.886719 119.34375 121.410156 116.046875 119.039062 113.675781 C 116.667969 111.273438 113.402344 109.828125 109.769531 109.828125 Z M 93.511719 106.65625 C 97.667969 102.5 103.425781 99.914062 109.769531 99.914062 C 116.113281 99.914062 121.871094 102.5 126.058594 106.65625 C 130.214844 110.8125 132.800781 116.570312 132.800781 122.914062 C 132.800781 129.257812 130.214844 135.015625 126.058594 139.203125 C 121.902344 143.359375 116.144531 145.945312 109.769531 145.945312 C 103.425781 145.945312 97.667969 143.359375 93.480469 139.203125 C 89.324219 135.046875 86.738281 129.289062 86.738281 122.914062 C 86.769531 116.570312 89.355469 110.8125 93.511719 106.65625 Z M 109.769531 239.523438 L 124.117188 253.875 L 167.90625 210.085938 C 182.039062 195.953125 182.039062 172.828125 167.90625 158.695312 C 153.773438 144.5625 130.648438 144.5625 116.511719 158.695312 L 109.769531 165.4375 L 103.027344 158.695312 C 88.890625 144.5625 65.765625 144.5625 51.632812 158.695312 C 37.5 172.828125 37.5 195.953125 51.632812 210.085938 L 95.421875 253.875 L 102.59375 246.699219 Z M 116.945312 232.382812 L 120.515625 235.953125 L 124.089844 239.523438 L 150.167969 213.445312 L 160.730469 202.914062 C 170.890625 192.75 170.890625 176.03125 160.730469 165.871094 C 150.539062 155.707031 133.847656 155.707031 123.6875 165.871094 L 109.769531 179.789062 L 95.851562 165.839844 C 85.691406 155.675781 68.96875 155.675781 58.808594 165.839844 C 48.648438 176 48.648438 192.722656 58.808594 202.882812 L 95.449219 239.523438 L 102.625 232.351562 L 99.054688 228.777344 L 96.652344 226.375 L 94.25 223.976562 L 87.074219 216.800781 L 79.59375 209.316406 L 65.984375 195.738281 C 59.761719 189.519531 59.761719 179.234375 65.984375 173.011719 C 72.203125 166.792969 82.488281 166.792969 88.707031 173.011719 L 109.800781 194.105469 L 130.894531 173.011719 C 137.113281 166.792969 147.398438 166.792969 153.617188 173.011719 C 159.835938 179.234375 159.835938 189.519531 153.617188 195.738281 L 143.085938 206.269531 L 132.496094 216.832031 L 125.320312 224.003906 L 112.878906 211.566406 L 109.769531 208.457031 L 102.625 201.28125 L 97.574219 196.261719 L 81.503906 180.1875 C 79.253906 177.941406 75.375 177.941406 73.125 180.1875 C 70.878906 182.4375 70.878906 186.316406 73.125 188.5625 Z M 116.945312 232.382812 " fill-opacity="1" fill-rule="evenodd"/></g><g fill="#000000" fill-opacity="1"><g transform="translate(187.499992, 198.782097)"><g><path d="M 17.5625 -28.109375 C 14.21875 -28.109375 11.585938 -26.988281 9.671875 -24.75 C 7.753906 -22.507812 6.796875 -19.445312 6.796875 -15.5625 C 6.796875 -11.695312 7.6875 -8.632812 9.46875 -6.375 C 11.257812 -4.125 13.941406 -3 17.515625 -3 C 18.847656 -3 20.125 -3.113281 21.34375 -3.34375 C 22.570312 -3.582031 23.78125 -3.878906 24.96875 -4.234375 L 24.96875 -0.828125 C 23.8125 -0.390625 22.613281 -0.0703125 21.375 0.125 C 20.132812 0.332031 18.660156 0.4375 16.953125 0.4375 C 13.785156 0.4375 11.140625 -0.210938 9.015625 -1.515625 C 6.898438 -2.828125 5.3125 -4.6875 4.25 -7.09375 C 3.1875 -9.507812 2.65625 -12.34375 2.65625 -15.59375 C 2.65625 -18.738281 3.226562 -21.507812 4.375 -23.90625 C 5.519531 -26.300781 7.210938 -28.171875 9.453125 -29.515625 C 11.691406 -30.867188 14.410156 -31.546875 17.609375 -31.546875 C 20.890625 -31.546875 23.75 -30.9375 26.1875 -29.71875 L 24.625 -26.40625 C 23.664062 -26.84375 22.597656 -27.234375 21.421875 -27.578125 C 20.242188 -27.929688 18.957031 -28.109375 17.5625 -28.109375 Z M 17.5625 -28.109375 "/></g></g></g><g fill="#000000" fill-opacity="1"><g transform="translate(213.474692, 198.782097)"><g><path d="M 12.46875 -31.109375 C 16.53125 -31.109375 19.488281 -30.3125 21.34375 -28.71875 C 23.207031 -27.125 24.140625 -24.875 24.140625 -21.96875 C 24.140625 -20.25 23.753906 -18.640625 22.984375 -17.140625 C 22.210938 -15.648438 20.921875 -14.4375 19.109375 -13.5 C 17.296875 -12.570312 14.832031 -12.109375 11.71875 -12.109375 L 8.15625 -12.109375 L 8.15625 0 L 4.234375 0 L 4.234375 -31.109375 Z M 12.109375 -27.765625 L 8.15625 -27.765625 L 8.15625 -15.46875 L 11.28125 -15.46875 C 14.25 -15.46875 16.457031 -15.945312 17.90625 -16.90625 C 19.363281 -17.863281 20.09375 -19.492188 20.09375 -21.796875 C 20.09375 -23.796875 19.445312 -25.289062 18.15625 -26.28125 C 16.863281 -27.269531 14.847656 -27.765625 12.109375 -27.765625 Z M 12.109375 -27.765625 "/></g></g></g><g fill="#000000" fill-opacity="1"><g transform="translate(238.272675, 198.782097)"><g><path d="M 4.234375 0 L 4.234375 -31.109375 L 27.578125 -31.109375 L 27.578125 0 L 23.703125 0 L 23.703125 -27.671875 L 8.15625 -27.671875 L 8.15625 0 Z M 4.234375 0 "/></g></g></g><g fill="#000000" fill-opacity="1"><g transform="translate(268.561991, 198.782097)"><g><path d="M 17.5625 -28.109375 C 14.21875 -28.109375 11.585938 -26.988281 9.671875 -24.75 C 7.753906 -22.507812 6.796875 -19.445312 6.796875 -15.5625 C 6.796875 -11.695312 7.6875 -8.632812 9.46875 -6.375 C 11.257812 -4.125 13.941406 -3 17.515625 -3 C 18.847656 -3 20.125 -3.113281 21.34375 -3.34375 C 22.570312 -3.582031 23.78125 -3.878906 24.96875 -4.234375 L 24.96875 -0.828125 C 23.8125 -0.390625 22.613281 -0.0703125 21.375 0.125 C 20.132812 0.332031 18.660156 0.4375 16.953125 0.4375 C 13.785156 0.4375 11.140625 -0.210938 9.015625 -1.515625 C 6.898438 -2.828125 5.3125 -4.6875 4.25 -7.09375 C 3.1875 -9.507812 2.65625 -12.34375 2.65625 -15.59375 C 2.65625 -18.738281 3.226562 -21.507812 4.375 -23.90625 C 5.519531 -26.300781 7.210938 -28.171875 9.453125 -29.515625 C 11.691406 -30.867188 14.410156 -31.546875 17.609375 -31.546875 C 20.890625 -31.546875 23.75 -30.9375 26.1875 -29.71875 L 24.625 -26.40625 C 23.664062 -26.84375 22.597656 -27.234375 21.421875 -27.578125 C 20.242188 -27.929688 18.957031 -28.109375 17.5625 -28.109375 Z M 17.5625 -28.109375 "/></g></g></g><g fill="#000000" fill-opacity="1"><g transform="translate(294.53669, 198.782097)"><g><path d="M 26.9375 0 L 22.21875 0 L 8.15625 -15.78125 L 8.15625 0 L 4.234375 0 L 4.234375 -31.109375 L 8.15625 -31.109375 L 8.15625 -16.03125 L 21.875 -31.109375 L 26.328125 -31.109375 L 12.8125 -16 Z M 26.9375 0 "/></g></g></g><g fill="#000000" fill-opacity="1"><g transform="translate(319.901248, 198.782097)"><g><path d="M 4.265625 -31.109375 L 7.9375 -31.109375 L 7.9375 -14.03125 C 7.9375 -13.039062 7.921875 -11.957031 7.890625 -10.78125 C 7.859375 -9.601562 7.8125 -8.515625 7.75 -7.515625 C 7.695312 -6.515625 7.65625 -5.796875 7.625 -5.359375 L 7.796875 -5.359375 L 24.921875 -31.109375 L 29.28125 -31.109375 L 29.28125 0 L 25.625 0 L 25.625 -16.90625 C 25.625 -17.957031 25.644531 -19.097656 25.6875 -20.328125 C 25.726562 -21.566406 25.773438 -22.691406 25.828125 -23.703125 C 25.890625 -24.722656 25.9375 -25.453125 25.96875 -25.890625 L 25.796875 -25.890625 L 8.625 0 L 4.265625 0 Z M 4.265625 -31.109375 "/></g></g></g><g fill="#000000" fill-opacity="1"><g transform="translate(351.808579, 198.782097)"><g/></g></g><g fill="#000000" fill-opacity="1"><g transform="translate(187.499992, 235.532094)"><g><path d="M 3.609375 0.4375 C 2.941406 0.4375 2.273438 0.367188 1.609375 0.234375 C 0.941406 0.109375 0.40625 -0.0234375 0 -0.171875 L 0 -3.96875 C 0.488281 -3.726562 1.039062 -3.53125 1.65625 -3.375 C 2.269531 -3.21875 2.894531 -3.140625 3.53125 -3.140625 C 5.101562 -3.140625 6.429688 -3.597656 7.515625 -4.515625 C 8.609375 -5.429688 9.78125 -6.90625 11.03125 -8.9375 L 4.484375 -31.109375 L 8.40625 -31.109375 L 12.15625 -17.46875 C 12.414062 -16.457031 12.671875 -15.460938 12.921875 -14.484375 C 13.171875 -13.515625 13.378906 -12.550781 13.546875 -11.59375 C 13.929688 -12.4375 14.332031 -13.269531 14.75 -14.09375 C 15.175781 -14.925781 15.632812 -15.765625 16.125 -16.609375 L 24.625 -31.109375 L 29.015625 -31.109375 L 14.6875 -7.75 C 13.4375 -5.75 12.25 -4.144531 11.125 -2.9375 C 10.007812 -1.738281 8.847656 -0.875 7.640625 -0.34375 C 6.441406 0.175781 5.097656 0.4375 3.609375 0.4375 Z M 3.609375 0.4375 "/></g></g></g><g fill="#000000" fill-opacity="1"><g transform="translate(210.946944, 235.532094)"><g/></g></g><g fill="#000000" fill-opacity="1"><g transform="translate(217.222597, 235.532094)"><g><path d="M 14.203125 0.4375 C 10.742188 0.4375 8.035156 -0.617188 6.078125 -2.734375 C 4.117188 -4.859375 3.140625 -7.769531 3.140625 -11.46875 C 3.140625 -13.320312 3.351562 -15.207031 3.78125 -17.125 C 4.21875 -19.039062 4.878906 -20.851562 5.765625 -22.5625 C 6.660156 -24.28125 7.78125 -25.816406 9.125 -27.171875 C 10.476562 -28.523438 12.054688 -29.59375 13.859375 -30.375 C 15.660156 -31.15625 17.691406 -31.546875 19.953125 -31.546875 C 22.859375 -31.546875 25.390625 -30.96875 27.546875 -29.8125 L 25.96875 -26.578125 C 25.1875 -26.984375 24.304688 -27.335938 23.328125 -27.640625 C 22.359375 -27.953125 21.234375 -28.109375 19.953125 -28.109375 C 17.773438 -28.109375 15.894531 -27.617188 14.3125 -26.640625 C 12.726562 -25.671875 11.410156 -24.378906 10.359375 -22.765625 C 9.316406 -21.148438 8.539062 -19.363281 8.03125 -17.40625 C 7.53125 -15.445312 7.28125 -13.492188 7.28125 -11.546875 C 7.28125 -8.898438 7.953125 -6.8125 9.296875 -5.28125 C 10.648438 -3.757812 12.519531 -3 14.90625 -3 C 16.09375 -3 17.257812 -3.113281 18.40625 -3.34375 C 19.5625 -3.582031 20.691406 -3.890625 21.796875 -4.265625 L 21.796875 -0.875 C 20.660156 -0.46875 19.515625 -0.148438 18.359375 0.078125 C 17.210938 0.316406 15.828125 0.4375 14.203125 0.4375 Z M 14.203125 0.4375 "/></g></g></g><g fill="#000000" fill-opacity="1"><g transform="translate(241.236111, 235.532094)"><g><path d="M 1.78125 0 L 8.359375 -31.109375 L 15.390625 -31.109375 C 18.722656 -31.109375 21.109375 -30.359375 22.546875 -28.859375 C 23.984375 -27.367188 24.703125 -25.421875 24.703125 -23.015625 C 24.703125 -19.492188 23.539062 -16.800781 21.21875 -14.9375 C 18.894531 -13.082031 15.5 -12.15625 11.03125 -12.15625 L 8.234375 -12.15625 L 5.671875 0 Z M 8.9375 -15.421875 L 11.640625 -15.421875 C 14.421875 -15.421875 16.632812 -16.015625 18.28125 -17.203125 C 19.925781 -18.398438 20.75 -20.289062 20.75 -22.875 C 20.75 -24.59375 20.257812 -25.835938 19.28125 -26.609375 C 18.3125 -27.378906 16.835938 -27.765625 14.859375 -27.765625 L 11.546875 -27.765625 Z M 8.9375 -15.421875 "/></g></g></g><g fill="#000000" fill-opacity="1"><g transform="translate(264.377986, 235.532094)"><g><path d="M 20.78125 8.15625 L 22.53125 0 L 1.75 0 L 8.328125 -31.109375 L 12.25 -31.109375 L 6.40625 -3.484375 L 19.484375 -3.484375 L 25.3125 -31.109375 L 29.234375 -31.109375 L 23.40625 -3.484375 L 27.015625 -3.484375 L 24.484375 8.15625 Z M 20.78125 8.15625 "/></g></g></g><g fill="#000000" fill-opacity="1"><g transform="translate(292.052384, 235.532094)"><g><path d="M 3.609375 0.4375 C 2.941406 0.4375 2.273438 0.367188 1.609375 0.234375 C 0.941406 0.109375 0.40625 -0.0234375 0 -0.171875 L 0 -3.96875 C 0.488281 -3.726562 1.039062 -3.53125 1.65625 -3.375 C 2.269531 -3.21875 2.894531 -3.140625 3.53125 -3.140625 C 5.101562 -3.140625 6.429688 -3.597656 7.515625 -4.515625 C 8.609375 -5.429688 9.78125 -6.90625 11.03125 -8.9375 L 4.484375 -31.109375 L 8.40625 -31.109375 L 12.15625 -17.46875 C 12.414062 -16.457031 12.671875 -15.460938 12.921875 -14.484375 C 13.171875 -13.515625 13.378906 -12.550781 13.546875 -11.59375 C 13.929688 -12.4375 14.332031 -13.269531 14.75 -14.09375 C 15.175781 -14.925781 15.632812 -15.765625 16.125 -16.609375 L 24.625 -31.109375 L 29.015625 -31.109375 L 14.6875 -7.75 C 13.4375 -5.75 12.25 -4.144531 11.125 -2.9375 C 10.007812 -1.738281 8.847656 -0.875 7.640625 -0.34375 C 6.441406 0.175781 5.097656 0.4375 3.609375 0.4375 Z M 3.609375 0.4375 "/></g></g></g><g fill="#000000" fill-opacity="1"><g transform="translate(315.499334, 235.532094)"><g><path d="M 4.859375 0.4375 C 3.597656 0.4375 2.738281 0.0664062 2.28125 -0.671875 C 1.832031 -1.410156 1.734375 -2.3125 1.984375 -3.375 C 2.234375 -4.4375 2.765625 -5.328125 3.578125 -6.046875 C 4.390625 -6.773438 5.390625 -7.140625 6.578125 -7.140625 C 7.765625 -7.140625 8.632812 -6.832031 9.1875 -6.21875 C 9.738281 -5.613281 9.875 -4.703125 9.59375 -3.484375 C 9.320312 -2.265625 8.78125 -1.304688 7.96875 -0.609375 C 7.15625 0.0859375 6.117188 0.4375 4.859375 0.4375 Z M 4.859375 0.4375 "/></g></g></g></svg>