<svg xmlns="http://www.w3.org/2000/svg" xmlns:xlink="http://www.w3.org/1999/xlink" width="500" zoomAndPan="magnify" viewBox="0 0 375 374.999991" height="500" preserveAspectRatio="xMidYMid meet" version="1.0"><defs><g/><clipPath id="d42e68d218"><rect x="0" width="235" y="0" height="42"/></clipPath><clipPath id="cc1e716cca"><rect x="0" width="191" y="0" height="22"/></clipPath><clipPath id="d1a023b496"><path d="M 127 112.332031 L 248 112.332031 L 248 204.5 L 127 204.5 Z M 127 112.332031 " clip-rule="nonzero"/></clipPath></defs><rect x="-37.5" width="450" fill="#ffffff" y="-37.499999" height="449.999989" fill-opacity="1"/><rect x="-37.5" width="450" fill="#ffffff" y="-37.499999" height="449.999989" fill-opacity="1"/><g transform="matrix(1, 0, 0, 1, 71, 203)"><g clip-path="url(#d42e68d218)"><g fill="#000000" fill-opacity="1"><g transform="translate(0.236288, 32.679937)"><g><path d="M 12 -19.203125 C 9.71875 -19.203125 7.921875 -18.4375 6.609375 -16.90625 C 5.296875 -15.382812 4.640625 -13.289062 4.640625 -10.625 C 4.640625 -7.988281 5.25 -5.898438 6.46875 -4.359375 C 7.695312 -2.828125 9.53125 -2.0625 11.96875 -2.0625 C 12.882812 -2.0625 13.757812 -2.140625 14.59375 -2.296875 C 15.425781 -2.453125 16.25 -2.648438 17.0625 -2.890625 L 17.0625 -0.5625 C 16.269531 -0.269531 15.453125 -0.0546875 14.609375 0.078125 C 13.765625 0.222656 12.753906 0.296875 11.578125 0.296875 C 9.421875 0.296875 7.613281 -0.144531 6.15625 -1.03125 C 4.707031 -1.925781 3.617188 -3.195312 2.890625 -4.84375 C 2.171875 -6.5 1.8125 -8.4375 1.8125 -10.65625 C 1.8125 -12.800781 2.203125 -14.691406 2.984375 -16.328125 C 3.773438 -17.972656 4.929688 -19.253906 6.453125 -20.171875 C 7.984375 -21.097656 9.84375 -21.5625 12.03125 -21.5625 C 14.269531 -21.5625 16.226562 -21.144531 17.90625 -20.3125 L 16.828125 -18.046875 C 16.171875 -18.347656 15.441406 -18.613281 14.640625 -18.84375 C 13.835938 -19.082031 12.957031 -19.203125 12 -19.203125 Z M 12 -19.203125 "/></g></g></g><g fill="#000000" fill-opacity="1"><g transform="translate(19.642577, 32.679937)"><g><path d="M 8.515625 -21.265625 C 11.296875 -21.265625 13.320312 -20.71875 14.59375 -19.625 C 15.863281 -18.53125 16.5 -16.992188 16.5 -15.015625 C 16.5 -13.835938 16.234375 -12.738281 15.703125 -11.71875 C 15.179688 -10.695312 14.300781 -9.867188 13.0625 -9.234375 C 11.820312 -8.597656 10.140625 -8.28125 8.015625 -8.28125 L 5.5625 -8.28125 L 5.5625 0 L 2.890625 0 L 2.890625 -21.265625 Z M 8.28125 -18.96875 L 5.5625 -18.96875 L 5.5625 -10.578125 L 7.71875 -10.578125 C 9.738281 -10.578125 11.242188 -10.898438 12.234375 -11.546875 C 13.234375 -12.203125 13.734375 -13.316406 13.734375 -14.890625 C 13.734375 -16.265625 13.289062 -17.285156 12.40625 -17.953125 C 11.519531 -18.628906 10.144531 -18.96875 8.28125 -18.96875 Z M 8.28125 -18.96875 "/></g></g></g><g fill="#000000" fill-opacity="1"><g transform="translate(38.245248, 32.679937)"><g><path d="M 2.890625 0 L 2.890625 -21.265625 L 18.859375 -21.265625 L 18.859375 0 L 16.203125 0 L 16.203125 -18.90625 L 5.5625 -18.90625 L 5.5625 0 Z M 2.890625 0 "/></g></g></g><g fill="#000000" fill-opacity="1"><g transform="translate(60.598132, 32.679937)"><g><path d="M 12 -19.203125 C 9.71875 -19.203125 7.921875 -18.4375 6.609375 -16.90625 C 5.296875 -15.382812 4.640625 -13.289062 4.640625 -10.625 C 4.640625 -7.988281 5.25 -5.898438 6.46875 -4.359375 C 7.695312 -2.828125 9.53125 -2.0625 11.96875 -2.0625 C 12.882812 -2.0625 13.757812 -2.140625 14.59375 -2.296875 C 15.425781 -2.453125 16.25 -2.648438 17.0625 -2.890625 L 17.0625 -0.5625 C 16.269531 -0.269531 15.453125 -0.0546875 14.609375 0.078125 C 13.765625 0.222656 12.753906 0.296875 11.578125 0.296875 C 9.421875 0.296875 7.613281 -0.144531 6.15625 -1.03125 C 4.707031 -1.925781 3.617188 -3.195312 2.890625 -4.84375 C 2.171875 -6.5 1.8125 -8.4375 1.8125 -10.65625 C 1.8125 -12.800781 2.203125 -14.691406 2.984375 -16.328125 C 3.773438 -17.972656 4.929688 -19.253906 6.453125 -20.171875 C 7.984375 -21.097656 9.84375 -21.5625 12.03125 -21.5625 C 14.269531 -21.5625 16.226562 -21.144531 17.90625 -20.3125 L 16.828125 -18.046875 C 16.171875 -18.347656 15.441406 -18.613281 14.640625 -18.84375 C 13.835938 -19.082031 12.957031 -19.203125 12 -19.203125 Z M 12 -19.203125 "/></g></g></g><g fill="#000000" fill-opacity="1"><g transform="translate(80.004421, 32.679937)"><g><path d="M 18.40625 0 L 15.1875 0 L 5.5625 -10.78125 L 5.5625 0 L 2.890625 0 L 2.890625 -21.265625 L 5.5625 -21.265625 L 5.5625 -10.953125 L 14.953125 -21.265625 L 17.984375 -21.265625 L 8.75 -10.9375 Z M 18.40625 0 "/></g></g></g><g fill="#000000" fill-opacity="1"><g transform="translate(98.994027, 32.679937)"><g><path d="M 2.921875 -21.265625 L 5.421875 -21.265625 L 5.421875 -9.59375 C 5.421875 -8.914062 5.410156 -8.175781 5.390625 -7.375 C 5.367188 -6.570312 5.335938 -5.828125 5.296875 -5.140625 C 5.253906 -4.453125 5.226562 -3.957031 5.21875 -3.65625 L 5.328125 -3.65625 L 17.03125 -21.265625 L 20.015625 -21.265625 L 20.015625 0 L 17.515625 0 L 17.515625 -11.5625 C 17.515625 -12.269531 17.523438 -13.046875 17.546875 -13.890625 C 17.578125 -14.734375 17.613281 -15.503906 17.65625 -16.203125 C 17.695312 -16.898438 17.726562 -17.394531 17.75 -17.6875 L 17.625 -17.6875 L 5.890625 0 L 2.921875 0 Z M 2.921875 -21.265625 "/></g></g></g><g fill="#000000" fill-opacity="1"><g transform="translate(122.448163, 32.679937)"><g/></g></g><g fill="#000000" fill-opacity="1"><g transform="translate(128.40132, 32.679937)"><g><path d="M 18.578125 -21.265625 L 11.796875 -6.046875 C 11.160156 -4.640625 10.519531 -3.460938 9.875 -2.515625 C 9.226562 -1.578125 8.46875 -0.875 7.59375 -0.40625 C 6.71875 0.0625 5.609375 0.296875 4.265625 0.296875 C 3.703125 0.296875 3.175781 0.253906 2.6875 0.171875 C 2.207031 0.0976562 1.769531 -0.0078125 1.375 -0.15625 L 1.375 -2.796875 C 1.769531 -2.617188 2.191406 -2.472656 2.640625 -2.359375 C 3.097656 -2.253906 3.578125 -2.203125 4.078125 -2.203125 C 5.171875 -2.203125 6.046875 -2.441406 6.703125 -2.921875 C 7.359375 -3.398438 7.960938 -4.242188 8.515625 -5.453125 L 0.328125 -21.265625 L 3.28125 -21.265625 L 9.203125 -9.5625 C 9.296875 -9.34375 9.410156 -9.082031 9.546875 -8.78125 C 9.691406 -8.488281 9.816406 -8.203125 9.921875 -7.921875 L 10.03125 -7.921875 C 10.113281 -8.117188 10.207031 -8.375 10.3125 -8.6875 C 10.425781 -9.007812 10.53125 -9.269531 10.625 -9.46875 L 15.75 -21.265625 Z M 18.578125 -21.265625 "/></g></g></g><g fill="#000000" fill-opacity="1"><g transform="translate(147.569497, 32.679937)"><g/></g></g><g fill="#000000" fill-opacity="1"><g transform="translate(153.522654, 32.679937)"><g><path d="M 12 -19.203125 C 9.71875 -19.203125 7.921875 -18.4375 6.609375 -16.90625 C 5.296875 -15.382812 4.640625 -13.289062 4.640625 -10.625 C 4.640625 -7.988281 5.25 -5.898438 6.46875 -4.359375 C 7.695312 -2.828125 9.53125 -2.0625 11.96875 -2.0625 C 12.882812 -2.0625 13.757812 -2.140625 14.59375 -2.296875 C 15.425781 -2.453125 16.25 -2.648438 17.0625 -2.890625 L 17.0625 -0.5625 C 16.269531 -0.269531 15.453125 -0.0546875 14.609375 0.078125 C 13.765625 0.222656 12.753906 0.296875 11.578125 0.296875 C 9.421875 0.296875 7.613281 -0.144531 6.15625 -1.03125 C 4.707031 -1.925781 3.617188 -3.195312 2.890625 -4.84375 C 2.171875 -6.5 1.8125 -8.4375 1.8125 -10.65625 C 1.8125 -12.800781 2.203125 -14.691406 2.984375 -16.328125 C 3.773438 -17.972656 4.929688 -19.253906 6.453125 -20.171875 C 7.984375 -21.097656 9.84375 -21.5625 12.03125 -21.5625 C 14.269531 -21.5625 16.226562 -21.144531 17.90625 -20.3125 L 16.828125 -18.046875 C 16.171875 -18.347656 15.441406 -18.613281 14.640625 -18.84375 C 13.835938 -19.082031 12.957031 -19.203125 12 -19.203125 Z M 12 -19.203125 "/></g></g></g><g fill="#000000" fill-opacity="1"><g transform="translate(172.928943, 32.679937)"><g><path d="M 8.515625 -21.265625 C 11.296875 -21.265625 13.320312 -20.71875 14.59375 -19.625 C 15.863281 -18.53125 16.5 -16.992188 16.5 -15.015625 C 16.5 -13.835938 16.234375 -12.738281 15.703125 -11.71875 C 15.179688 -10.695312 14.300781 -9.867188 13.0625 -9.234375 C 11.820312 -8.597656 10.140625 -8.28125 8.015625 -8.28125 L 5.5625 -8.28125 L 5.5625 0 L 2.890625 0 L 2.890625 -21.265625 Z M 8.28125 -18.96875 L 5.5625 -18.96875 L 5.5625 -10.578125 L 7.71875 -10.578125 C 9.738281 -10.578125 11.242188 -10.898438 12.234375 -11.546875 C 13.234375 -12.203125 13.734375 -13.316406 13.734375 -14.890625 C 13.734375 -16.265625 13.289062 -17.285156 12.40625 -17.953125 C 11.519531 -18.628906 10.144531 -18.96875 8.28125 -18.96875 Z M 8.28125 -18.96875 "/></g></g></g><g fill="#000000" fill-opacity="1"><g transform="translate(191.531613, 32.679937)"><g><path d="M 21.4375 -2.359375 L 21.4375 5.59375 L 18.875 5.59375 L 18.875 0 L 2.890625 0 L 2.890625 -21.265625 L 5.5625 -21.265625 L 5.5625 -2.375 L 16.203125 -2.375 L 16.203125 -21.265625 L 18.859375 -21.265625 L 18.859375 -2.359375 Z M 21.4375 -2.359375 "/></g></g></g><g fill="#000000" fill-opacity="1"><g transform="translate(214.182133, 32.679937)"><g><path d="M 18.578125 -21.265625 L 11.796875 -6.046875 C 11.160156 -4.640625 10.519531 -3.460938 9.875 -2.515625 C 9.226562 -1.578125 8.46875 -0.875 7.59375 -0.40625 C 6.71875 0.0625 5.609375 0.296875 4.265625 0.296875 C 3.703125 0.296875 3.175781 0.253906 2.6875 0.171875 C 2.207031 0.0976562 1.769531 -0.0078125 1.375 -0.15625 L 1.375 -2.796875 C 1.769531 -2.617188 2.191406 -2.472656 2.640625 -2.359375 C 3.097656 -2.253906 3.578125 -2.203125 4.078125 -2.203125 C 5.171875 -2.203125 6.046875 -2.441406 6.703125 -2.921875 C 7.359375 -3.398438 7.960938 -4.242188 8.515625 -5.453125 L 0.328125 -21.265625 L 3.28125 -21.265625 L 9.203125 -9.5625 C 9.296875 -9.34375 9.410156 -9.082031 9.546875 -8.78125 C 9.691406 -8.488281 9.816406 -8.203125 9.921875 -7.921875 L 10.03125 -7.921875 C 10.113281 -8.117188 10.207031 -8.375 10.3125 -8.6875 C 10.425781 -9.007812 10.53125 -9.269531 10.625 -9.46875 L 15.75 -21.265625 Z M 18.578125 -21.265625 "/></g></g></g></g></g><g transform="matrix(1, 0, 0, 1, 92, 243)"><g clip-path="url(#cc1e716cca)"><g fill="#000000" fill-opacity="1"><g transform="translate(1.934163, 15.228962)"><g><path d="M 1.46875 0 L 1.46875 -10.796875 L 9.578125 -10.796875 L 9.578125 0 L 8.234375 0 L 8.234375 -9.609375 L 2.828125 -9.609375 L 2.828125 0 Z M 1.46875 0 "/></g></g></g><g fill="#000000" fill-opacity="1"><g transform="translate(13.744473, 15.228962)"><g><path d="M 9.234375 0 L 7.875 0 L 7.875 -9.609375 L 4.46875 -9.609375 C 4.375 -8.859375 4.269531 -8.070312 4.15625 -7.25 C 4.050781 -6.425781 3.941406 -5.640625 3.828125 -4.890625 C 3.710938 -4.148438 3.601562 -3.519531 3.5 -3 C 3.363281 -2.3125 3.195312 -1.734375 3 -1.265625 C 2.8125 -0.796875 2.554688 -0.4375 2.234375 -0.1875 C 1.921875 0.0507812 1.507812 0.171875 1 0.171875 C 0.820312 0.171875 0.644531 0.148438 0.46875 0.109375 C 0.300781 0.078125 0.148438 0.0351562 0.015625 -0.015625 L 0.015625 -1.15625 C 0.128906 -1.101562 0.253906 -1.054688 0.390625 -1.015625 C 0.535156 -0.984375 0.6875 -0.96875 0.84375 -0.96875 C 1.144531 -0.96875 1.382812 -1.085938 1.5625 -1.328125 C 1.738281 -1.578125 1.875 -1.882812 1.96875 -2.25 C 2.070312 -2.625 2.160156 -2.992188 2.234375 -3.359375 C 2.316406 -3.742188 2.414062 -4.304688 2.53125 -5.046875 C 2.644531 -5.785156 2.769531 -6.648438 2.90625 -7.640625 C 3.039062 -8.628906 3.179688 -9.679688 3.328125 -10.796875 L 9.234375 -10.796875 Z M 9.234375 0 "/></g></g></g><g fill="#000000" fill-opacity="1"><g transform="translate(25.20699, 15.228962)"><g><path d="M 8.25 0 L 6.9375 -3.34375 L 2.65625 -3.34375 L 1.375 0 L 0 0 L 4.21875 -10.84375 L 5.4375 -10.84375 L 9.65625 0 Z M 6.53125 -4.546875 L 5.328125 -7.8125 C 5.296875 -7.894531 5.242188 -8.039062 5.171875 -8.25 C 5.097656 -8.46875 5.03125 -8.6875 4.96875 -8.90625 C 4.90625 -9.132812 4.851562 -9.3125 4.8125 -9.4375 C 4.726562 -9.125 4.644531 -8.816406 4.5625 -8.515625 C 4.476562 -8.222656 4.40625 -7.988281 4.34375 -7.8125 L 3.109375 -4.546875 Z M 6.53125 -4.546875 "/></g></g></g><g fill="#000000" fill-opacity="1"><g transform="translate(35.626099, 15.228962)"><g><path d="M 4.890625 0 L 3.53125 0 L 3.53125 -9.609375 L 0.15625 -9.609375 L 0.15625 -10.796875 L 8.25 -10.796875 L 8.25 -9.609375 L 4.890625 -9.609375 Z M 4.890625 0 "/></g></g></g><g fill="#000000" fill-opacity="1"><g transform="translate(44.790094, 15.228962)"><g><path d="M 6.75 -10.953125 L 6.75 -9.625 C 7.914062 -9.601562 8.835938 -9.410156 9.515625 -9.046875 C 10.191406 -8.679688 10.671875 -8.195312 10.953125 -7.59375 C 11.234375 -6.988281 11.375 -6.320312 11.375 -5.59375 C 11.375 -5.113281 11.300781 -4.632812 11.15625 -4.15625 C 11.007812 -3.675781 10.757812 -3.238281 10.40625 -2.84375 C 10.050781 -2.457031 9.578125 -2.144531 8.984375 -1.90625 C 8.390625 -1.664062 7.644531 -1.535156 6.75 -1.515625 L 6.75 0.15625 L 5.40625 0.15625 L 5.40625 -1.515625 C 4.476562 -1.535156 3.710938 -1.664062 3.109375 -1.90625 C 2.515625 -2.15625 2.046875 -2.476562 1.703125 -2.875 C 1.359375 -3.28125 1.113281 -3.71875 0.96875 -4.1875 C 0.832031 -4.664062 0.765625 -5.132812 0.765625 -5.59375 C 0.765625 -6.300781 0.910156 -6.957031 1.203125 -7.5625 C 1.492188 -8.164062 1.972656 -8.65625 2.640625 -9.03125 C 3.316406 -9.40625 4.238281 -9.601562 5.40625 -9.625 L 5.40625 -10.953125 Z M 5.40625 -8.46875 C 4.582031 -8.445312 3.929688 -8.316406 3.453125 -8.078125 C 2.984375 -7.835938 2.644531 -7.503906 2.4375 -7.078125 C 2.238281 -6.648438 2.140625 -6.160156 2.140625 -5.609375 C 2.140625 -4.710938 2.394531 -4 2.90625 -3.46875 C 3.425781 -2.945312 4.257812 -2.664062 5.40625 -2.625 Z M 6.75 -8.46875 L 6.75 -2.625 C 7.914062 -2.664062 8.75 -2.957031 9.25 -3.5 C 9.75 -4.039062 10 -4.742188 10 -5.609375 C 10 -6.179688 9.894531 -6.675781 9.6875 -7.09375 C 9.488281 -7.519531 9.148438 -7.847656 8.671875 -8.078125 C 8.191406 -8.316406 7.550781 -8.445312 6.75 -8.46875 Z M 6.75 -8.46875 "/></g></g></g><g fill="#000000" fill-opacity="1"><g transform="translate(57.704303, 15.228962)"><g><path d="M 10.890625 -5.421875 C 10.890625 -4.296875 10.695312 -3.316406 10.3125 -2.484375 C 9.9375 -1.648438 9.378906 -1 8.640625 -0.53125 C 7.898438 -0.0703125 6.988281 0.15625 5.90625 0.15625 C 4.789062 0.15625 3.863281 -0.0703125 3.125 -0.53125 C 2.382812 -1 1.832031 -1.648438 1.46875 -2.484375 C 1.101562 -3.328125 0.921875 -4.3125 0.921875 -5.4375 C 0.921875 -6.53125 1.101562 -7.492188 1.46875 -8.328125 C 1.832031 -9.160156 2.382812 -9.804688 3.125 -10.265625 C 3.863281 -10.734375 4.796875 -10.96875 5.921875 -10.96875 C 7.003906 -10.96875 7.910156 -10.738281 8.640625 -10.28125 C 9.378906 -9.820312 9.9375 -9.175781 10.3125 -8.34375 C 10.695312 -7.507812 10.890625 -6.535156 10.890625 -5.421875 Z M 2.359375 -5.421875 C 2.359375 -4.054688 2.644531 -2.984375 3.21875 -2.203125 C 3.789062 -1.421875 4.6875 -1.03125 5.90625 -1.03125 C 7.132812 -1.03125 8.03125 -1.421875 8.59375 -2.203125 C 9.164062 -2.984375 9.453125 -4.054688 9.453125 -5.421875 C 9.453125 -6.773438 9.171875 -7.835938 8.609375 -8.609375 C 8.046875 -9.378906 7.148438 -9.765625 5.921875 -9.765625 C 4.691406 -9.765625 3.789062 -9.378906 3.21875 -8.609375 C 2.644531 -7.835938 2.359375 -6.773438 2.359375 -5.421875 Z M 2.359375 -5.421875 "/></g></g></g><g fill="#000000" fill-opacity="1"><g transform="translate(70.270705, 15.228962)"><g><path d="M 4.328125 -10.796875 C 5.734375 -10.796875 6.757812 -10.519531 7.40625 -9.96875 C 8.050781 -9.414062 8.375 -8.632812 8.375 -7.625 C 8.375 -7.03125 8.238281 -6.472656 7.96875 -5.953125 C 7.707031 -5.429688 7.257812 -5.007812 6.625 -4.6875 C 6 -4.363281 5.144531 -4.203125 4.0625 -4.203125 L 2.828125 -4.203125 L 2.828125 0 L 1.46875 0 L 1.46875 -10.796875 Z M 4.203125 -9.640625 L 2.828125 -9.640625 L 2.828125 -5.375 L 3.921875 -5.375 C 4.941406 -5.375 5.703125 -5.539062 6.203125 -5.875 C 6.710938 -6.207031 6.96875 -6.769531 6.96875 -7.5625 C 6.96875 -8.257812 6.742188 -8.78125 6.296875 -9.125 C 5.847656 -9.46875 5.148438 -9.640625 4.203125 -9.640625 Z M 4.203125 -9.640625 "/></g></g></g><g fill="#000000" fill-opacity="1"><g transform="translate(80.175661, 15.228962)"><g><path d="M 6.234375 0 L 2.671875 -9.46875 L 2.609375 -9.46875 C 2.640625 -9.15625 2.664062 -8.734375 2.6875 -8.203125 C 2.707031 -7.671875 2.71875 -7.117188 2.71875 -6.546875 L 2.71875 0 L 1.46875 0 L 1.46875 -10.796875 L 3.484375 -10.796875 L 6.8125 -1.953125 L 6.859375 -1.953125 L 10.25 -10.796875 L 12.25 -10.796875 L 12.25 0 L 10.90625 0 L 10.90625 -6.640625 C 10.90625 -7.160156 10.914062 -7.675781 10.9375 -8.1875 C 10.96875 -8.707031 10.992188 -9.128906 11.015625 -9.453125 L 10.953125 -9.453125 L 7.34375 0 Z M 6.234375 0 "/></g></g></g><g fill="#000000" fill-opacity="1"><g transform="translate(94.647431, 15.228962)"><g><path d="M 8.25 0 L 6.9375 -3.34375 L 2.65625 -3.34375 L 1.375 0 L 0 0 L 4.21875 -10.84375 L 5.4375 -10.84375 L 9.65625 0 Z M 6.53125 -4.546875 L 5.328125 -7.8125 C 5.296875 -7.894531 5.242188 -8.039062 5.171875 -8.25 C 5.097656 -8.46875 5.03125 -8.6875 4.96875 -8.90625 C 4.90625 -9.132812 4.851562 -9.3125 4.8125 -9.4375 C 4.726562 -9.125 4.644531 -8.816406 4.5625 -8.515625 C 4.476562 -8.222656 4.40625 -7.988281 4.34375 -7.8125 L 3.109375 -4.546875 Z M 6.53125 -4.546875 "/></g></g></g><g fill="#000000" fill-opacity="1"><g transform="translate(105.066541, 15.228962)"><g/></g></g><g fill="#000000" fill-opacity="1"><g transform="translate(109.860314, 15.228962)"><g><path d="M 7.84375 -8.265625 C 7.84375 -7.535156 7.609375 -6.957031 7.140625 -6.53125 C 6.679688 -6.101562 6.066406 -5.828125 5.296875 -5.703125 L 5.296875 -5.640625 C 6.203125 -5.515625 6.890625 -5.226562 7.359375 -4.78125 C 7.835938 -4.332031 8.078125 -3.757812 8.078125 -3.0625 C 8.078125 -2.113281 7.710938 -1.335938 6.984375 -0.734375 C 6.265625 -0.140625 5.175781 0.15625 3.71875 0.15625 C 3.132812 0.15625 2.578125 0.109375 2.046875 0.015625 C 1.515625 -0.0664062 1.023438 -0.21875 0.578125 -0.4375 L 0.578125 -1.671875 C 1.035156 -1.441406 1.546875 -1.265625 2.109375 -1.140625 C 2.679688 -1.023438 3.210938 -0.96875 3.703125 -0.96875 C 4.671875 -0.96875 5.40625 -1.148438 5.90625 -1.515625 C 6.40625 -1.878906 6.65625 -2.394531 6.65625 -3.0625 C 6.65625 -3.738281 6.363281 -4.234375 5.78125 -4.546875 C 5.195312 -4.859375 4.378906 -5.015625 3.328125 -5.015625 L 1.78125 -5.015625 L 1.78125 -6.15625 L 3.25 -6.15625 C 4.320312 -6.15625 5.117188 -6.332031 5.640625 -6.6875 C 6.171875 -7.050781 6.4375 -7.535156 6.4375 -8.140625 C 6.4375 -8.679688 6.234375 -9.097656 5.828125 -9.390625 C 5.429688 -9.679688 4.910156 -9.828125 4.265625 -9.828125 C 3.578125 -9.828125 3.007812 -9.738281 2.5625 -9.5625 C 2.125 -9.394531 1.691406 -9.175781 1.265625 -8.90625 L 0.625 -9.828125 C 1.039062 -10.140625 1.554688 -10.40625 2.171875 -10.625 C 2.796875 -10.84375 3.5 -10.953125 4.28125 -10.953125 C 5.4375 -10.953125 6.316406 -10.695312 6.921875 -10.1875 C 7.535156 -9.6875 7.84375 -9.046875 7.84375 -8.265625 Z M 7.84375 -8.265625 "/></g></g></g><g fill="#000000" fill-opacity="1"><g transform="translate(119.508201, 15.228962)"><g><path d="M 8.25 0 L 6.9375 -3.34375 L 2.65625 -3.34375 L 1.375 0 L 0 0 L 4.21875 -10.84375 L 5.4375 -10.84375 L 9.65625 0 Z M 6.53125 -4.546875 L 5.328125 -7.8125 C 5.296875 -7.894531 5.242188 -8.039062 5.171875 -8.25 C 5.097656 -8.46875 5.03125 -8.6875 4.96875 -8.90625 C 4.90625 -9.132812 4.851562 -9.3125 4.8125 -9.4375 C 4.726562 -9.125 4.644531 -8.816406 4.5625 -8.515625 C 4.476562 -8.222656 4.40625 -7.988281 4.34375 -7.8125 L 3.109375 -4.546875 Z M 6.53125 -4.546875 "/></g></g></g><g fill="#000000" fill-opacity="1"><g transform="translate(129.927311, 15.228962)"><g/></g></g><g fill="#000000" fill-opacity="1"><g transform="translate(134.721084, 15.228962)"><g><path d="M 9.4375 -10.796875 L 5.984375 -3.078125 C 5.660156 -2.359375 5.332031 -1.757812 5 -1.28125 C 4.675781 -0.800781 4.289062 -0.441406 3.84375 -0.203125 C 3.40625 0.0351562 2.84375 0.15625 2.15625 0.15625 C 1.875 0.15625 1.609375 0.132812 1.359375 0.09375 C 1.117188 0.0507812 0.898438 -0.00390625 0.703125 -0.078125 L 0.703125 -1.421875 C 0.898438 -1.328125 1.113281 -1.253906 1.34375 -1.203125 C 1.570312 -1.148438 1.816406 -1.125 2.078125 -1.125 C 2.628906 -1.125 3.070312 -1.242188 3.40625 -1.484375 C 3.738281 -1.722656 4.046875 -2.148438 4.328125 -2.765625 L 0.171875 -10.796875 L 1.65625 -10.796875 L 4.671875 -4.859375 C 4.722656 -4.742188 4.785156 -4.609375 4.859375 -4.453125 C 4.929688 -4.304688 4.988281 -4.160156 5.03125 -4.015625 L 5.09375 -4.015625 C 5.132812 -4.117188 5.179688 -4.25 5.234375 -4.40625 C 5.296875 -4.570312 5.351562 -4.707031 5.40625 -4.8125 L 8 -10.796875 Z M 9.4375 -10.796875 "/></g></g></g><g fill="#000000" fill-opacity="1"><g transform="translate(144.913355, 15.228962)"><g><path d="M 9.09375 0 L 7.734375 0 L 7.734375 -4.4375 C 7.148438 -4.226562 6.601562 -4.0625 6.09375 -3.9375 C 5.582031 -3.8125 5.015625 -3.75 4.390625 -3.75 C 3.378906 -3.75 2.59375 -3.984375 2.03125 -4.453125 C 1.476562 -4.921875 1.203125 -5.597656 1.203125 -6.484375 L 1.203125 -10.796875 L 2.578125 -10.796875 L 2.578125 -6.6875 C 2.578125 -6.101562 2.726562 -5.664062 3.03125 -5.375 C 3.34375 -5.09375 3.835938 -4.953125 4.515625 -4.953125 C 5.117188 -4.953125 5.65625 -5.003906 6.125 -5.109375 C 6.601562 -5.210938 7.140625 -5.363281 7.734375 -5.5625 L 7.734375 -10.796875 L 9.09375 -10.796875 Z M 9.09375 0 "/></g></g></g><g fill="#000000" fill-opacity="1"><g transform="translate(156.224642, 15.228962)"><g><path d="M 7.5 0 L 1.46875 0 L 1.46875 -10.796875 L 7.5 -10.796875 L 7.5 -9.609375 L 2.828125 -9.609375 L 2.828125 -6.234375 L 7.234375 -6.234375 L 7.234375 -5.046875 L 2.828125 -5.046875 L 2.828125 -1.1875 L 7.5 -1.1875 Z M 7.5 0 "/></g></g></g><g fill="#000000" fill-opacity="1"><g transform="translate(165.388636, 15.228962)"><g><path d="M 1.46875 0 L 1.46875 -10.796875 L 2.828125 -10.796875 L 2.828125 -6.234375 L 7.453125 -6.234375 L 7.453125 -10.796875 L 8.828125 -10.796875 L 8.828125 -6.234375 L 9.703125 -6.234375 C 10.765625 -6.234375 11.597656 -6.097656 12.203125 -5.828125 C 12.816406 -5.554688 13.253906 -5.1875 13.515625 -4.71875 C 13.785156 -4.25 13.921875 -3.726562 13.921875 -3.15625 C 13.921875 -2.195312 13.601562 -1.429688 12.96875 -0.859375 C 12.332031 -0.285156 11.328125 0 9.953125 0 L 7.453125 0 L 7.453125 -5.03125 L 2.828125 -5.03125 L 2.828125 0 Z M 8.828125 -1.171875 L 9.78125 -1.171875 C 10.707031 -1.171875 11.394531 -1.332031 11.84375 -1.65625 C 12.289062 -1.976562 12.515625 -2.476562 12.515625 -3.15625 C 12.515625 -3.851562 12.269531 -4.34375 11.78125 -4.625 C 11.300781 -4.90625 10.5625 -5.046875 9.5625 -5.046875 L 8.828125 -5.046875 Z M 8.828125 -1.171875 "/></g></g></g><g fill="#000000" fill-opacity="1"><g transform="translate(180.631614, 15.228962)"><g><path d="M 7.5 0 L 1.46875 0 L 1.46875 -10.796875 L 7.5 -10.796875 L 7.5 -9.609375 L 2.828125 -9.609375 L 2.828125 -6.234375 L 7.234375 -6.234375 L 7.234375 -5.046875 L 2.828125 -5.046875 L 2.828125 -1.1875 L 7.5 -1.1875 Z M 7.5 0 "/></g></g></g></g></g><g clip-path="url(#d1a023b496)"><path fill="#cb0b0b" d="M 193.753906 158.726562 L 212.144531 140.335938 C 214.132812 138.375 217.488281 138.375 219.449219 140.335938 C 221.40625 142.296875 221.40625 145.679688 219.449219 147.640625 L 201.058594 166.03125 Z M 187.5 78.988281 C 184.359375 78.988281 181.484375 80.277344 179.417969 82.34375 C 177.351562 84.414062 176.0625 87.285156 176.0625 90.425781 C 176.0625 93.566406 177.351562 96.441406 179.417969 98.507812 C 181.484375 100.574219 184.359375 101.863281 187.5 101.863281 C 190.640625 101.863281 193.511719 100.574219 195.582031 98.507812 C 197.648438 96.441406 198.9375 93.566406 198.9375 90.425781 C 198.9375 87.285156 197.648438 84.414062 195.582031 82.34375 C 193.511719 80.25 190.667969 78.988281 187.5 78.988281 Z M 173.324219 76.222656 C 176.949219 72.597656 181.96875 70.34375 187.5 70.34375 C 193.03125 70.34375 198.050781 72.597656 201.703125 76.222656 C 205.324219 79.847656 207.582031 84.867188 207.582031 90.398438 C 207.582031 95.929688 205.324219 100.949219 201.703125 104.601562 C 198.078125 108.226562 193.058594 110.480469 187.5 110.480469 C 181.96875 110.480469 176.949219 108.226562 173.296875 104.601562 C 169.671875 100.976562 167.417969 95.957031 167.417969 90.398438 C 167.445312 84.867188 169.699219 79.847656 173.324219 76.222656 Z M 187.5 192.070312 L 200.011719 204.582031 L 238.1875 166.40625 C 250.511719 154.082031 250.511719 133.917969 238.1875 121.597656 C 225.863281 109.273438 205.703125 109.273438 193.378906 121.597656 L 187.5 127.476562 L 181.621094 121.597656 C 169.296875 109.273438 149.132812 109.273438 136.8125 121.597656 C 124.488281 133.917969 124.488281 154.082031 136.8125 166.40625 L 174.988281 204.582031 Z M 193.753906 185.84375 L 196.867188 188.957031 L 199.984375 192.070312 L 207.285156 184.769531 L 213.542969 178.515625 L 222.722656 169.332031 L 231.933594 160.148438 C 240.792969 151.289062 240.792969 136.710938 231.933594 127.851562 C 223.046875 118.992188 208.496094 118.992188 199.632812 127.851562 L 187.5 139.988281 L 175.363281 127.824219 C 166.503906 118.964844 151.925781 118.964844 143.066406 127.824219 C 134.207031 136.683594 134.207031 151.261719 143.066406 160.121094 L 154.933594 171.988281 L 161.457031 178.515625 L 171.363281 188.421875 L 175.015625 192.070312 L 181.269531 185.816406 L 161.1875 165.734375 L 149.320312 153.894531 C 143.898438 148.472656 143.898438 139.503906 149.320312 134.082031 C 154.746094 128.65625 163.710938 128.65625 169.136719 134.082031 L 187.527344 152.472656 L 205.917969 134.082031 C 211.339844 128.65625 220.308594 128.65625 225.730469 134.082031 C 231.152344 139.503906 231.152344 148.472656 225.730469 153.894531 L 216.546875 163.078125 L 207.3125 172.285156 L 201.058594 178.539062 L 190.210938 167.695312 L 187.5 164.980469 L 181.269531 158.726562 L 176.867188 154.351562 L 162.851562 140.335938 C 160.894531 138.375 157.511719 138.375 155.550781 140.335938 C 153.589844 142.296875 153.589844 145.679688 155.550781 147.640625 L 183.847656 175.9375 L 187.5 179.585938 Z M 193.753906 185.84375 " fill-opacity="1" fill-rule="evenodd"/></g></svg>