<svg xmlns="http://www.w3.org/2000/svg" xmlns:xlink="http://www.w3.org/1999/xlink" width="500" zoomAndPan="magnify" viewBox="0 0 375 374.999991" height="500" preserveAspectRatio="xMidYMid meet" version="1.0"><defs><clipPath id="74739b97c3"><path d="M 75 101.476562 L 300 101.476562 L 300 273.226562 L 75 273.226562 Z M 75 101.476562 " clip-rule="nonzero"/></clipPath></defs><rect x="-37.5" width="450" fill="#ffffff" y="-37.499999" height="449.999989" fill-opacity="1"/><rect x="-37.5" width="450" fill="#ffffff" y="-37.499999" height="449.999989" fill-opacity="1"/><g clip-path="url(#74739b97c3)"><path fill="#cb0b0b" d="M 199.148438 187.90625 L 233.410156 153.644531 C 237.113281 149.992188 243.363281 149.992188 247.015625 153.644531 C 250.667969 157.296875 250.667969 163.597656 247.015625 167.25 L 212.753906 201.511719 Z M 187.496094 39.355469 C 181.640625 39.355469 176.289062 41.753906 172.4375 45.605469 C 168.585938 49.457031 166.1875 54.808594 166.1875 60.660156 C 166.1875 66.515625 168.585938 71.867188 172.4375 75.71875 C 176.289062 79.570312 181.640625 81.96875 187.496094 81.96875 C 193.347656 81.96875 198.699219 79.570312 202.550781 75.71875 C 206.402344 71.867188 208.800781 66.515625 208.800781 60.660156 C 208.800781 54.808594 206.402344 49.457031 202.550781 45.605469 C 198.699219 41.703125 193.398438 39.355469 187.496094 39.355469 Z M 161.085938 34.203125 C 167.835938 27.449219 177.191406 23.25 187.496094 23.25 C 197.796875 23.25 207.152344 27.449219 213.953125 34.203125 C 220.707031 40.953125 224.90625 50.308594 224.90625 60.613281 C 224.90625 70.914062 220.707031 80.269531 213.953125 87.070312 C 207.203125 93.824219 197.847656 98.023438 187.496094 98.023438 C 177.191406 98.023438 167.835938 93.824219 161.035156 87.070312 C 154.28125 80.320312 150.082031 70.964844 150.082031 60.613281 C 150.132812 50.308594 154.332031 40.953125 161.085938 34.203125 Z M 187.496094 250.03125 L 210.804688 273.339844 L 281.929688 202.214844 C 304.886719 179.253906 304.886719 141.691406 281.929688 118.734375 C 258.96875 95.773438 221.40625 95.773438 198.449219 118.734375 L 187.496094 129.6875 L 176.539062 118.734375 C 153.582031 95.773438 116.019531 95.773438 93.058594 118.734375 C 70.101562 141.691406 70.101562 179.253906 93.058594 202.214844 L 104.015625 213.167969 L 164.1875 273.339844 L 175.839844 261.683594 Z M 199.148438 238.425781 L 210.753906 250.03125 L 217.554688 243.226562 L 224.359375 236.425781 L 236.011719 224.769531 L 253.117188 207.664062 L 270.273438 190.558594 C 286.78125 174.054688 286.78125 146.894531 270.273438 130.386719 C 253.71875 113.882812 226.609375 113.882812 210.101562 130.386719 L 187.496094 152.996094 L 164.886719 130.335938 C 148.378906 113.832031 121.21875 113.832031 104.714844 130.335938 C 88.207031 146.84375 88.207031 174.003906 104.714844 190.507812 L 157.433594 243.226562 L 164.234375 250.03125 L 175.890625 238.375 L 138.476562 200.960938 L 116.367188 178.90625 C 106.265625 168.800781 106.265625 152.09375 116.367188 141.992188 C 126.472656 131.886719 143.179688 131.886719 153.28125 141.992188 L 187.542969 176.253906 L 221.808594 141.992188 C 231.910156 131.886719 248.617188 131.886719 258.71875 141.992188 C 268.824219 152.09375 268.824219 168.800781 258.71875 178.90625 L 241.613281 196.011719 L 224.40625 213.167969 L 212.753906 224.820312 L 187.496094 199.5625 L 175.890625 187.90625 L 167.6875 179.753906 L 141.578125 153.644531 C 137.925781 149.992188 131.625 149.992188 127.972656 153.644531 C 124.320312 157.296875 124.320312 163.597656 127.972656 167.25 L 151.929688 191.210938 L 162.234375 201.511719 Z M 199.148438 238.425781 " fill-opacity="1" fill-rule="evenodd"/></g></svg>